Coordinates
version=1
nRows=17
nColumns=36
inDegrees=yes

Units are S.I. units (second, meters, Newtons, ...)
If the header above contains a line with 'inDegrees', this indicates whether rotational values are in degrees (yes) or radians (no).

endheader
time	pelvis_tilt	pelvis_list	pelvis_rotation	pelvis_tx	pelvis_ty	pelvis_tz	hip_flexion_r	hip_adduction_r	hip_rotation_r	knee_angle_r	knee_angle_r_beta	ankle_angle_r	subtalar_angle_r	mtp_angle_r	hip_flexion_l	hip_adduction_l	hip_rotation_l	knee_angle_l	knee_angle_l_beta	ankle_angle_l	subtalar_angle_l	mtp_angle_l	lumbar_extension	lumbar_bending	lumbar_rotation	arm_flex_r	arm_add_r	arm_rot_r	elbow_flex_r	pro_sup_r	arm_flex_l	arm_add_l	arm_rot_l	elbow_flex_l	pro_sup_l
     29.81666670	      5.18232566	      2.29409760	    188.90023728	      0.29632469	      0.98719832	      0.64005533	     11.59020485	      3.97520363	      0.67486802	     19.19433881	      0.33500441	     -2.83441932	    -13.30607448	     -7.49999987	     33.73386239	     -9.13978826	     -7.19735498	     38.96695195	      0.68010161	    -22.98322133	    -18.03131748	     -7.49999987	    -16.00441265	     -1.15999087	     11.77329213	      7.11115462	    -15.57008935	      0.11272643	     30.19554677	     83.16258001	     15.76215430	     -7.16671992	      0.79249961	     19.50760380	     89.10629431
     29.83333330	      5.16407038	      3.41523397	    188.96662105	      0.29687207	      0.98045947	      0.64117771	     11.28819839	      5.43343578	      0.75308336	     20.77129623	      0.36252751	     -0.24483000	    -11.97638108	     -7.49999987	     33.45659155	    -10.20639204	     -7.72428347	     33.90996336	      0.59184051	    -23.26132433	    -16.94452103	     -7.49999987	    -15.52320831	      0.00151488	     12.57366234	      7.10333890	    -16.06368106	      0.78159014	     30.12231580	     83.10971961	     14.35155642	     -6.88548882	     -0.21140038	     19.37453476	     88.68232915
     29.85000000	      5.17042752	      4.72589565	    189.13885739	      0.29561795	      0.97322201	      0.64287296	     11.14285375	      7.12926831	      0.56391528	     23.39871939	      0.40838469	      3.31304515	     -9.80214570	     -7.49999987	     33.12007126	    -11.31010581	     -7.63748921	     28.59053701	      0.49899901	    -23.53118435	    -15.63303583	     -7.49999987	    -14.66059168	      1.46007462	     12.14583060	      8.13717131	    -16.52508657	      4.27344944	     28.68428864	     83.61498466	     11.99078200	     -6.54525633	     -5.54553577	     19.74745597	     90.59955933
     29.86666670	      5.13403798	      5.99595395	    189.21091636	      0.29190091	      0.96618743	      0.64526294	     10.90339639	      8.81681330	      0.29723620	     26.78891305	      0.46755474	      7.49357479	     -6.74511224	     -7.49999987	     32.46582955	    -12.39550457	     -7.78131067	     22.99930542	      0.40141361	    -23.82734400	    -14.01155125	     -7.49999987	    -13.55452187	      2.82560958	     12.93110685	      7.88413006	    -16.91515129	      5.18058576	     28.05452009	     82.91959382	     10.57815401	     -6.28853134	     -6.27470587	     18.62992999	     89.73756220
     29.88333330	      4.88817400	      7.29739835	    189.17365579	      0.28646589	      0.95872797	      0.64898366	      9.91241394	     10.54801158	      0.25702036	     29.75041983	      0.51924278	     11.31742493	     -3.05871380	     -7.49999987	     31.28693309	    -13.51766208	     -8.65542416	     17.54184334	      0.30616292	    -25.01625673	    -12.60182728	     -7.49999987	    -12.27723814	      4.40043053	     13.69702998	      7.51719740	    -17.39066287	      6.34947680	     27.20299496	     83.00962760	      8.92918792	     -6.10417011	     -6.90092033	     17.63095211	     89.94192578
     29.90000000	      4.25947766	      8.17216021	    189.34952264	      0.28176129	      0.95444497	      0.65380875	      7.73280423	     11.90248175	      0.92278910	     31.25961504	      0.54558321	     14.33513586	      0.31198234	     -7.49999987	     29.94853533	    -14.23455671	    -10.50575089	     13.08964602	      0.22845742	    -25.71925593	    -12.07588683	     -7.49999987	    -11.53360619	      5.64313146	     14.36620791	      6.92974392	    -17.86030089	      7.10701668	     26.69948794	     83.17662832	      7.44559192	     -6.12892469	     -7.26777831	     16.81224872	     90.26786502
     29.91666670	      3.79006852	      9.03726406	    189.61133930	      0.27910970	      0.95298750	      0.65918094	      5.15618700	     13.26126058	      2.60441729	     31.03451976	      0.54165455	     16.13217560	      2.00069987	     -7.49999987	     28.97238568	    -14.78238131	    -12.67854832	     10.07255191	      0.17579919	    -26.39087328	    -12.39579653	     -7.49999987	    -10.66060654	      6.98757439	     14.53085842	      6.33355431	    -18.17777616	      7.44662354	     26.36754190	     83.20289167	      5.75584314	     -6.35255352	     -7.51483352	     16.00339083	     90.36086251
     29.93333330	      2.63271366	      8.76462009	    189.97633567	      0.27933797	      0.95458365	      0.66474465	      1.69188794	     13.18398826	      4.31154891	     29.98851631	      0.52339835	     17.59349075	      3.65612673	     -7.49999987	     26.95442545	    -14.26896349	    -15.21574523	      8.11217139	      0.14158410	    -27.22993198	    -13.53721686	     -7.49999987	    -11.26595346	      7.22933076	     13.26628550	      7.92057452	    -18.32619597	     12.40729749	     23.96606746	     83.24971822	      4.03784562	     -6.67065952	    -11.61619615	     15.44438381	     93.86123275
     29.95000000	      2.28373668	      8.12777508	    190.52952104	      0.28314057	      0.95616774	      0.67055922	     -0.52555417	     12.42369814	      5.80012629	     28.74513339	      0.50169722	     18.57853228	      3.64654048	     -7.49999987	     26.25822600	    -13.20399164	    -17.11646936	      7.45048339	      0.13003547	    -26.62184471	    -14.91404759	     -7.49999987	    -11.54398430	      6.73709108	     12.71873195	      7.87941378	    -18.04948601	     12.09566335	     23.45640813	     83.01369261	      3.25332382	     -7.34985150	    -11.84938733	     14.60131625	     94.04427952
     29.96666670	      2.30151757	      7.48321665	    190.94677668	      0.29010076	      0.95600428	      0.67632935	     -1.88279379	     11.50323047	      7.04513555	     27.75431498	      0.48440418	     18.03687077	      3.15531218	     -7.49999987	     26.17533818	    -12.07578463	    -18.15408419	      7.56972277	      0.13211659	    -25.52555645	    -16.15781017	     -7.49999987	    -12.19315980	      6.17041780	     11.98820661	      8.27643090	    -17.64936054	     11.49424085	     22.59835031	     82.65359393	      2.82312558	     -7.91193866	    -12.04636929	     14.13597289	     94.29750614
     29.98333330	      2.75713459	      7.06160828	    191.02078430	      0.29598113	      0.95268252	      0.68143256	     -2.43557445	     10.86126636	      8.39706611	     27.44881842	      0.47907226	     17.64088495	      3.19185382	     -7.49999987	     26.80875170	    -11.24831455	    -18.36683213	      8.45633606	      0.14759091	    -24.18602157	    -17.33013341	     -7.49999987	    -12.77919521	      5.65988278	     11.63512245	      8.48208053	    -17.63539134	     11.21085610	     22.40292308	     82.52719450	      2.83293944	     -8.35856746	    -12.07135865	     14.07497128	     94.36940225
     30.00000000	      3.18310179	      6.66820013	    191.07525873	      0.29949634	      0.94578493	      0.68594241	     -2.96529785	     10.50575563	     10.17791927	     27.60375639	      0.48177643	     16.42888957	      2.21979912	     -7.49999987	     27.64302689	    -10.51721457	    -17.43889479	     10.00369551	      0.17459742	    -23.31393384	    -18.82772080	     -7.49999987	    -13.69104425	      5.09624089	     10.77971057	      9.37297270	    -17.20807514	      9.80274970	     21.60754292	     80.83075708	      2.94880700	     -8.84080208	    -11.79677591	     14.44334419	     92.80449119
     30.01666670	      3.98958925	      6.37835980	    190.87358740	      0.30174013	      0.93802942	      0.68989334	     -2.56163051	     10.14125851	     11.63817468	     28.83983203	      0.50335002	     16.52701723	      0.77866170	     -7.49999987	     29.33265195	     -9.98449643	    -15.55077328	     12.86723958	      0.22457570	    -22.16620821	    -21.01265895	     -7.49999987	    -14.30729256	      4.44644619	     10.59446095	      9.74998743	    -17.16147840	      8.60226309	     21.62775087	     79.55589257	      3.52090303	     -9.27587823	    -10.96733618	     14.88612088	     91.86623637
     30.03333330	      4.77796856	      6.04997476	    190.53823490	      0.30263110	      0.93332155	      0.69261524	     -1.63890997	      9.56773793	     12.57890452	     30.79063214	      0.53739791	     16.52783592	     -1.96902230	     -7.49999987	     31.52636685	     -9.52253838	    -13.02683388	     17.33891816	      0.30262121	    -20.60126967	    -23.42336564	     -7.49999987	    -14.81917310	      3.68674657	     10.67925325	     10.01677604	    -17.26393267	      7.82363870	     21.80769055	     79.61856187	      4.16282611	     -9.64210078	    -10.51794878	     15.53860606	     92.45091802
     30.05000000	      4.77802251	      5.37157629	    189.75360603	      0.30145262	      0.93252762	      0.69464284	     -1.30920653	      8.48376302	     12.93941629	     33.10286776	      0.57775403	     16.83502244	     -3.81899674	     -7.49999987	     32.46979048	     -8.97793170	    -11.01840188	     22.03145751	      0.38452147	    -19.59148728	    -24.88104992	     -7.49999987	    -16.02177151	      2.62333059	     11.04277365	     10.64001974	    -17.39248370	      7.55292720	     21.82500396	     79.62276591	      4.92416938	     -9.92688809	    -10.44906760	     15.86492330	     92.56015719
     30.06666670	      5.25023000	      5.74422250	    188.96908866	      0.29788125	      0.93218082	      0.69909311	     -0.44823309	      8.49609444	     13.40254596	     35.16584790	      0.61375983	     15.37163508	     -7.24866038	     -7.49999987	     33.98408905	     -9.04284876	     -8.38132049	     26.50798132	      0.46265155	    -19.68372983	    -26.51986654	     -7.49999987	    -15.55237155	      2.90478544	     12.03779277	     10.55105618	    -17.87445563	      6.68600167	     21.31615036	     79.59534567	      5.35054236	     -9.67131057	    -10.12789222	     16.37124355	     92.83441013
     30.08333330	      5.02132400	      5.36004866	    188.30249795	      0.29059300	      0.93345182	      0.70716912	     -0.50818361	      7.51262422	     12.79360251	     37.57642599	      0.65583235	     13.76204599	     -8.44189366	     -7.49999987	     33.51659740	     -8.25190671	     -6.96060256	     29.38140402	      0.51280224	    -19.75158289	    -26.89271385	     -7.49999987	    -15.27573212	      2.55430858	     13.89031355	      9.34214451	    -18.04396940	      1.84273728	     21.09927680	     81.26932922	      7.19702917	     -9.44075639	     -7.51588035	     14.68742548	     95.06577455
